<?xml version="1.0" encoding="utf-8"?>
<!-- Generator: Adobe Illustrator 15.1.0, SVG Export Plug-In . SVG Version: 6.00 Build 0)  -->
<!DOCTYPE svg PUBLIC "-//W3C//DTD SVG 1.1//EN" "http://www.w3.org/Graphics/SVG/1.1/DTD/svg11.dtd">
<svg version="1.1" id="レイヤー_1" xmlns="http://www.w3.org/2000/svg" xmlns:xlink="http://www.w3.org/1999/xlink" x="0px"
	 y="0px" width="653.967px" height="624.52px" viewBox="0 0 653.967 624.52" enable-background="new 0 0 653.967 624.52"
	 xml:space="preserve">
<polygon opacity="0.42" fill="#F97855" points="200.594,327.28 137.543,436.485 74.491,327.28 "/>
<polygon opacity="0.42" fill="#F97855" points="263.646,218.073 200.594,327.28 137.542,218.073 "/>
<polygon opacity="0.42" fill="#601986" points="326.696,111.876 263.646,221.083 200.594,111.876 "/>
<polygon opacity="0.54" fill="#00913A" points="390.318,218.073 327.268,327.28 264.215,218.073 "/>
<polygon opacity="0.54" fill="#00913A" stroke="#FFFFFF" stroke-width="7" points="264.216,436.487 327.268,327.281 
	390.319,436.487 "/>
<polygon opacity="0.54" fill="#FFF100" points="327.267,327.28 264.216,436.485 201.164,327.28 "/>
<polygon opacity="0.42" fill="#F97855" points="137.543,436.485 74.492,545.692 11.44,436.485 "/>
<polygon opacity="0.54" fill="#036EB8" points="516.423,436.487 453.372,545.694 390.319,436.487 "/>
<polygon opacity="0.54" fill="#036EB8" points="642.526,436.487 579.476,545.694 516.423,436.487 "/>
<polygon opacity="0.54" fill="#036EB8" points="453.371,327.28 390.319,436.485 327.268,327.28 "/>
<polygon opacity="0.54" fill="#036EB8" points="579.475,327.28 516.423,436.485 453.371,327.28 "/>
<g>
	<g>
		<path fill="#896918" d="M-100.364-118.213c-1.024,1.039-6.015,6.32-6.064,14.655c-0.051,8.498,5.07,13.899,6.064,14.909
			c0.994-1.009,6.115-6.411,6.064-14.909C-94.349-111.893-99.339-117.174-100.364-118.213 M-103.396-99.424
			c0.025-4.167,2.52-6.808,3.032-7.328c0.511,0.52,3.007,3.16,3.031,7.328c0.026,4.249-2.535,6.95-3.031,7.454
			C-100.86-92.474-103.422-95.175-103.396-99.424"/>
		<path fill="#896918" d="M-90.117-94.208c4.438-3.232,9.256-3.342,11.118-3.285c-2.007-0.328-8.322-1.088-13.898,2.78
			c-5.192,3.603-6.919,9.262-7.467,13.515c-0.548-4.253-2.275-9.913-7.467-13.515c-5.575-3.868-11.893-3.108-13.898-2.78
			c1.862-0.057,6.68,0.053,11.118,3.285c4.832,3.52,6.189,8.538,7.049,11.719c0.663,2.453,2.632,9.734-1.237,17.087
			c-2.111,4.011-5.093,6.397-6.823,7.581c1.727-0.824,5.533-2.929,8.338-7.328c1.913-2.998,2.63-5.916,2.919-8.132
			c0.289,2.216,1.006,5.134,2.919,8.132c2.806,4.399,6.612,6.504,8.339,7.328c-1.731-1.184-4.713-3.57-6.823-7.581
			c-3.869-7.353-1.901-14.634-1.238-17.087C-96.307-85.67-94.951-90.689-90.117-94.208"/>
		<path fill="#896918" d="M-142.189-50.704c0.145,0.302,10.398-4.722,18.292-6.652c0.354-0.086,1.563-0.377,3.174-0.864
			c2.987-0.902,5.616-1.696,7.704-3.01c3.884-2.445,5.478-6.427,5.838-7.329c2.74-6.846,0.702-17.19-6.914-21.355
			c-4.907-2.683-11.952-2.656-16.454,1.138c-2.704,2.279-3.659,5.216-3.938,6.213c-0.272,0.974-1.73,6.189,1.576,10.328
			c2.32,2.906,7.017,5.318,11.115,3.414c4.612-2.144,6.397-8.797,3.953-12.206c-1.213-1.69-3.945-3.251-6.403-2.235
			c-2.265,0.937-3.662,3.798-2.976,6.827c-0.3-3.114,1.674-5.685,4.026-6.039c2.309-0.347,4.297,1.544,5.076,3.238
			c1.307,2.842-0.219,6.372-2.451,7.876c-3.577,2.413-9.765,0.162-11.902-4.201c-2.036-4.154,0.254-8.892,2.9-11.351
			c3.331-3.094,7.545-2.875,8.477-2.827c6.949,0.362,10.497,6.584,10.678,6.915c1.564,2.854,1.57,5.5,1.575,7.701
			c0.005,2.067,0.017,7.524-3.619,11.167c-0.58,0.581-1.418,1.282-5.859,3.111c-6.425,2.646-9.49,3.163-13.714,4.802
			C-138.044-53.712-142.285-50.905-142.189-50.704"/>
		<path fill="#896918" d="M-58.539-50.704c-0.145,0.302-10.398-4.722-18.293-6.652c-0.353-0.086-1.562-0.377-3.173-0.864
			c-2.988-0.902-5.616-1.696-7.705-3.01c-3.883-2.445-5.478-6.427-5.838-7.329c-2.739-6.846-0.7-17.19,6.915-21.355
			c4.907-2.683,11.95-2.656,16.453,1.138c2.704,2.279,3.661,5.216,3.938,6.213c0.273,0.974,1.731,6.189-1.574,10.328
			c-2.321,2.906-7.018,5.318-11.116,3.414c-4.611-2.144-6.397-8.797-3.952-12.206c1.213-1.69,3.946-3.251,6.403-2.235
			c2.266,0.937,3.661,3.798,2.975,6.827c0.3-3.114-1.674-5.685-4.025-6.039c-2.309-0.347-4.297,1.544-5.076,3.238
			c-1.308,2.842,0.218,6.372,2.451,7.876c3.577,2.413,9.764,0.162,11.901-4.201c2.037-4.154-0.253-8.892-2.9-11.351
			c-3.33-3.094-7.545-2.875-8.478-2.827c-6.948,0.362-10.496,6.584-10.678,6.915c-1.564,2.854-1.57,5.5-1.574,7.701
			c-0.006,2.067-0.019,7.524,3.62,11.167c0.579,0.581,1.417,1.282,5.859,3.111c6.424,2.646,9.489,3.163,13.714,4.802
			C-62.685-53.712-58.443-50.905-58.539-50.704"/>
		<path fill="#896918" d="M-131.107-60.418c-1.733-0.867-2.65-2.178-3.008-2.758c0.688-0.566,1.126-1.423,1.126-2.383
			c0-1.704-1.381-3.085-3.085-3.085c-1.704,0-3.085,1.381-3.085,3.085c0,1.703,1.381,3.085,3.085,3.085
			c0.069,0.722,0.096,2.057-0.496,3.557c-0.844,2.138-2.417,3.27-3.027,3.664c0.643-0.217,3.295-1.191,4.464-3.851
			c0.354-0.807,0.486-1.573,0.525-2.188c0.496,0.47,1.739,1.521,3.676,1.926c2.03,0.423,3.655-0.105,4.289-0.351
			C-127.303-59.619-129.133-59.431-131.107-60.418 M-135.095-67.77c0.541,0,0.979,0.438,0.979,0.979s-0.438,0.979-0.979,0.979
			c-0.541,0-0.979-0.438-0.979-0.979S-135.636-67.77-135.095-67.77"/>
		<path fill="#896918" d="M-73.695-59.719c0.634,0.245,2.259,0.774,4.289,0.351c1.938-0.404,3.179-1.456,3.677-1.926
			c0.039,0.616,0.169,1.381,0.524,2.188c1.168,2.66,3.821,3.634,4.464,3.851c-0.61-0.394-2.184-1.526-3.026-3.664
			c-0.593-1.5-0.565-2.834-0.498-3.556c1.705,0,3.085-1.381,3.085-3.085c0-1.704-1.381-3.085-3.085-3.085
			c-1.703,0-3.083,1.381-3.083,3.085c0,0.96,0.438,1.818,1.126,2.384c-0.359,0.581-1.275,1.891-3.008,2.758
			C-71.205-59.431-73.036-59.619-73.695-59.719 M-64.265-66.791c0,0.541-0.437,0.979-0.979,0.979c-0.54,0-0.979-0.438-0.979-0.979
			s0.438-0.979,0.979-0.979C-64.702-67.77-64.265-67.332-64.265-66.791"/>
		<path fill="#896918" d="M-151.585-68.383c-0.146,0.135-1.721,1.639-1.4,3.763c0.289,1.913,1.925,3.085,3.357,3.452
			c2.581,0.662,4.573-1.387,4.87-1.702c2.116-2.245,1.421-5.329,1.313-5.776c-0.13-0.537-0.833-3.13-3.326-4.288
			c-2.238-1.04-4.4-0.216-5.426,0.175c0,0-3.092,1.166-4.989,4.288c-2.864,4.715-0.836,13.672,4.901,22.93
			c-3.573-7.03-4.197-12.644-4.288-15.666c-0.094-3.141,0.331-5.368,1.751-7.177c0.23-0.294,1.887-2.237,4.638-2.713
			c0.843-0.146,2.078-0.36,3.3,0.318c1.686,0.936,2.051,2.854,2.133,3.285c0.109,0.57,0.483,2.534-0.882,4.012
			c-1.065,1.154-2.909,1.704-4.364,1.043C-151.849-63.279-152.813-65.97-151.585-68.383"/>
		<path fill="#896918" d="M-49.144-68.383c0.146,0.135,1.721,1.639,1.401,3.763c-0.288,1.913-1.925,3.085-3.357,3.452
			c-2.582,0.662-4.574-1.387-4.87-1.702c-2.117-2.245-1.421-5.329-1.313-5.776c0.131-0.537,0.832-3.13,3.326-4.288
			c2.239-1.04,4.401-0.216,5.427,0.175c0,0,3.092,1.166,4.988,4.288c2.865,4.715,0.838,13.672-4.901,22.93
			c3.573-7.03,4.198-12.644,4.29-15.666c0.094-3.141-0.332-5.368-1.752-7.177c-0.23-0.294-1.886-2.237-4.637-2.713
			c-0.844-0.146-2.078-0.36-3.3,0.318c-1.687,0.936-2.052,2.854-2.133,3.285c-0.108,0.57-0.483,2.534,0.881,4.012
			c1.066,1.154,2.91,1.704,4.364,1.043C-48.878-63.279-47.914-65.97-49.144-68.383"/>
		<path fill="#896918" d="M-146.627-54.278c-0.137-0.382-0.553-1.331-1.862-2.114c-1.345,0.311-2.004,0.982-2.276,1.313
			c-1.368,1.665-1.124,4.682,0.875,7.265C-147.143-49.496-145.904-52.247-146.627-54.278 M-149.397-51.562
			c-0.86-1.112-0.965-2.411-0.376-3.127c0.117-0.143,0.4-0.432,0.979-0.565c0.563,0.337,0.743,0.746,0.802,0.911
			C-147.682-53.47-148.214-52.285-149.397-51.562"/>
		<path fill="#896918" d="M-49.963-55.08c-0.271-0.331-0.93-1.001-2.276-1.313c-1.307,0.783-1.726,1.732-1.86,2.114
			c-0.724,2.031,0.514,4.783,3.261,6.463C-48.84-50.398-48.595-53.415-49.963-55.08 M-51.33-51.562
			c-1.183-0.723-1.717-1.908-1.405-2.782c0.059-0.165,0.239-0.573,0.801-0.911c0.579,0.134,0.863,0.423,0.979,0.565
			C-50.365-53.973-50.469-52.674-51.33-51.562"/>
		<path fill="#896918" d="M-171.662-80.11c7.147,1.755,9.655,4.573,10.623,6.826c0.625,1.456,0.554,2.553,1.05,6.477
			c0.493,3.888,1.093,7.002,1.514,8.986L-171.662-80.11z"/>
		<path fill="#896918" d="M-29.067-80.11c-7.145,1.755-9.654,4.573-10.623,6.826c-0.623,1.456-0.553,2.553-1.049,6.477
			c-0.492,3.888-1.094,7.002-1.514,8.986L-29.067-80.11z"/>
		<path fill="#896918" d="M-154.396-75.353c0,1.352-1.096,2.448-2.448,2.448s-2.448-1.096-2.448-2.448
			c0-1.352,1.096-2.448,2.448-2.448S-154.396-76.705-154.396-75.353"/>
		<path fill="#896918" d="M-159.796-78.296c0,0.736-0.598,1.334-1.334,1.334c-0.737,0-1.335-0.598-1.335-1.334
			c0-0.737,0.598-1.335,1.335-1.335C-160.395-79.631-159.796-79.034-159.796-78.296"/>
		<path fill="#896918" d="M-46.332-75.353c0,1.352,1.095,2.448,2.448,2.448c1.352,0,2.447-1.096,2.447-2.448
			c0-1.352-1.096-2.448-2.447-2.448C-45.237-77.801-46.332-76.705-46.332-75.353"/>
		<path fill="#896918" d="M-40.932-78.296c0,0.736,0.598,1.334,1.334,1.334c0.738,0,1.336-0.598,1.336-1.334
			c0-0.737-0.598-1.335-1.336-1.335C-40.334-79.631-40.932-79.034-40.932-78.296"/>
		<path fill="#896918" d="M-77.616-53.13c-4.381-0.99-8.504-1.569-12.277-1.879c0.377-0.085,0.677-0.178,0.877-0.245
			c-1.309-0.184-3.763-0.716-6.183-2.513c-3.83-2.843-4.896-6.859-5.165-8.044c-0.268,1.185-1.336,5.201-5.165,8.044
			c-2.421,1.797-4.874,2.33-6.183,2.513c0.2,0.067,0.499,0.16,0.876,0.245c-3.773,0.31-7.896,0.89-12.277,1.879
			c-11.885,2.684-21.019,7.321-27.032,11.014c7.185-3.691,17.911-8.053,31.477-9.662c6.899-0.818,13.093-0.754,18.304-0.327
			c5.209-0.427,11.405-0.492,18.304,0.327c13.565,1.608,24.29,5.971,31.477,9.662C-56.597-45.809-65.729-50.447-77.616-53.13
			 M-100.364-55.255c-1.701-0.06-3.556-0.075-5.536-0.022c4.081-1.466,5.388-5.486,5.536-5.97c0.148,0.483,1.453,4.503,5.536,5.97
			C-96.809-55.33-98.664-55.314-100.364-55.255"/>
		<path fill="#896918" d="M-131.521-41.024c0,1.974-1.6,3.575-3.575,3.575c-1.974,0-3.574-1.601-3.574-3.575
			c0-1.975,1.6-3.575,3.574-3.575C-133.121-44.599-131.521-42.999-131.521-41.024"/>
		<path fill="#FFFFFF" d="M-133.06-42.819c0,0.595-0.482,1.077-1.077,1.077c-0.596,0-1.078-0.482-1.078-1.077
			c0-0.596,0.482-1.078,1.078-1.078C-133.542-43.896-133.06-43.415-133.06-42.819"/>
		<path fill="#896918" d="M-144.976-41.024c-1.975,0-3.575,1.601-3.575,3.575c0,1.974,1.601,3.574,3.575,3.574
			c1.974,0,3.575-1.6,3.575-3.574C-141.401-39.423-143.002-41.024-144.976-41.024 M-144.018-38.167
			c-0.595,0-1.078-0.482-1.078-1.078c0-0.595,0.483-1.078,1.078-1.078c0.595,0,1.078,0.483,1.078,1.078
			C-142.94-38.649-143.423-38.167-144.018-38.167"/>
		<path fill="#896918" d="M-135.569-44.599c-1.975,0-3.575,1.6-3.575,3.575c0,1.974,1.6,3.575,3.575,3.575
			c1.974,0,3.575-1.601,3.575-3.575C-131.994-42.999-133.595-44.599-135.569-44.599 M-134.611-41.742
			c-0.596,0-1.078-0.482-1.078-1.077c0-0.596,0.482-1.078,1.078-1.078c0.595,0,1.078,0.482,1.078,1.078
			C-133.533-42.224-134.016-41.742-134.611-41.742"/>
		<path fill="#896918" d="M-124.58-47.114c-1.974,0-3.574,1.601-3.574,3.575c0,1.974,1.6,3.575,3.574,3.575
			c1.975,0,3.575-1.601,3.575-3.575C-121.005-45.513-122.605-47.114-124.58-47.114 M-123.622-44.256
			c-0.595,0-1.078-0.482-1.078-1.078c0-0.595,0.482-1.077,1.078-1.077c0.595,0,1.078,0.482,1.078,1.077
			C-122.544-44.739-123.027-44.256-123.622-44.256"/>
		<path fill="#896918" d="M-112.655-48.773c-1.974,0-3.575,1.6-3.575,3.574c0,1.975,1.601,3.575,3.575,3.575
			c1.975,0,3.574-1.6,3.574-3.575C-109.081-47.173-110.681-48.773-112.655-48.773 M-111.697-45.917
			c-0.595,0-1.077-0.483-1.077-1.078c0-0.595,0.482-1.078,1.077-1.078c0.596,0,1.078,0.483,1.078,1.078
			C-110.62-46.399-111.102-45.917-111.697-45.917"/>
		<path fill="#896918" d="M-55.751-41.024c-1.974,0-3.575,1.601-3.575,3.575c0,1.974,1.601,3.574,3.575,3.574s3.575-1.6,3.575-3.574
			C-52.176-39.423-53.777-41.024-55.751-41.024 M-54.794-38.167c-0.594,0-1.077-0.482-1.077-1.078c0-0.595,0.483-1.078,1.077-1.078
			c0.595,0,1.079,0.483,1.079,1.078C-53.716-38.649-54.199-38.167-54.794-38.167"/>
		<path fill="#896918" d="M-66.696-44.599c-1.974,0-3.575,1.6-3.575,3.575c0,1.974,1.601,3.575,3.575,3.575
			c1.974,0,3.575-1.601,3.575-3.575C-63.121-42.999-64.722-44.599-66.696-44.599 M-65.737-41.742c-0.596,0-1.079-0.482-1.079-1.077
			c0-0.596,0.483-1.078,1.079-1.078c0.593,0,1.077,0.482,1.077,1.078C-64.661-42.224-65.144-41.742-65.737-41.742"/>
		<path fill="#896918" d="M-76.586-47.114c-1.974,0-3.575,1.601-3.575,3.575c0,1.974,1.601,3.575,3.575,3.575
			c1.974,0,3.575-1.601,3.575-3.575C-73.012-45.513-74.613-47.114-76.586-47.114 M-75.628-44.256c-0.596,0-1.079-0.482-1.079-1.078
			c0-0.595,0.483-1.077,1.079-1.077c0.595,0,1.077,0.482,1.077,1.077C-74.551-44.739-75.033-44.256-75.628-44.256"/>
		<path fill="#896918" d="M-88.712-48.773c-1.974,0-3.575,1.6-3.575,3.574c0,1.975,1.601,3.575,3.575,3.575s3.575-1.6,3.575-3.575
			C-85.137-47.173-86.738-48.773-88.712-48.773 M-87.754-45.917c-0.595,0-1.079-0.483-1.079-1.078c0-0.595,0.483-1.078,1.079-1.078
			c0.596,0,1.077,0.483,1.077,1.078C-86.677-46.399-87.158-45.917-87.754-45.917"/>
		<path fill="#896918" d="M-100.838-49.867c-1.974,0-3.575,1.6-3.575,3.575c0,1.974,1.601,3.575,3.575,3.575
			s3.575-1.601,3.575-3.575C-97.263-48.267-98.864-49.867-100.838-49.867 M-99.879-47.01c-0.596,0-1.078-0.482-1.078-1.078
			c0-0.596,0.482-1.078,1.078-1.078c0.595,0,1.077,0.482,1.077,1.078C-98.803-47.492-99.284-47.01-99.879-47.01"/>
		<path fill="#896918" d="M-68.009-35.293c-6.907-1.96-13.056-2.259-22.435-2.661c-4.105-0.176-7.525-0.213-9.92-0.212
			c-2.395-0.001-5.815,0.036-9.92,0.212c-9.379,0.402-15.528,0.701-22.434,2.661c-3.856,1.095-13.765,3.905-13.689,7.098
			c0.081,3.437,11.268,6.118,23.863,8.112c-9.025-1.882-19.774-4.686-19.68-7.732c0.056-1.803,3.893-3.057,8.112-4.436
			c5.565-1.819,10.581-2.462,23.195-3.169c2.883-0.162,6.45-0.342,10.554-0.507c4.104,0.165,7.671,0.346,10.552,0.507
			c12.615,0.707,17.63,1.35,23.195,3.169c4.22,1.378,8.058,2.632,8.113,4.436c0.094,3.047-10.656,5.85-19.68,7.732
			c12.595-1.994,23.78-4.676,23.862-8.112C-54.246-31.388-64.155-34.198-68.009-35.293"/>
		<path fill="#896918" d="M-108.753-101.237c0,1.211-0.982,2.194-2.194,2.194s-2.194-0.982-2.194-2.194
			c0-1.212,0.982-2.194,2.194-2.194S-108.753-102.449-108.753-101.237"/>
		<path fill="#896918" d="M-108.753-106.237c0,0.525-0.425,0.951-0.951,0.951c-0.525,0-0.951-0.426-0.951-0.951
			s0.426-0.951,0.951-0.951C-109.179-107.188-108.753-106.762-108.753-106.237"/>
		<path fill="#896918" d="M-91.975-101.237c0,1.211,0.983,2.194,2.194,2.194s2.194-0.982,2.194-2.194
			c0-1.212-0.983-2.194-2.194-2.194S-91.975-102.449-91.975-101.237"/>
		<path fill="#896918" d="M-91.975-106.237c0,0.525,0.426,0.951,0.952,0.951c0.524,0,0.95-0.426,0.95-0.951s-0.426-0.951-0.95-0.951
			C-91.549-107.188-91.975-106.762-91.975-106.237"/>
	</g>
	<g>
		<path fill="#896918" d="M-136.227,8.858c1.183,2.093,2.508,3.282,3.461,3.97c2.177,1.571,3.692,1.449,7.124,3.155
			c0.214,0.106,2.288,1.146,4.173,2.544c3.115,2.311,4.37,4.6,7.022,8.448c1.47,2.132,3.663,5.169,6.616,8.753
			c-2.821-1.713-5.232-2.686-6.921-3.257c-1.795-0.608-2.653-0.724-4.377-1.526c-2.699-1.257-4.446-2.767-4.885-3.155
			c-2.36-2.089-3.763-4.399-4.58-6.107c-0.629-0.435-1.538-1.11-2.545-2.036c-1.737-1.599-3.768-3.467-4.682-6.412
			C-136.099,12.333-136.427,10.837-136.227,8.858"/>
		<path fill="#896918" d="M-173.375,15.881c1.152,1.068,2.937,2.47,5.394,3.46c3.125,1.259,3.92,0.475,8.854,1.425
			c4.784,0.921,8.914,2.598,10.789,3.359c2.017,0.819,2.092,0.968,3.46,1.425c3.914,1.308,6.86,1.278,8.651,1.425
			c2.728,0.225,6.646,1.181,11.501,4.581c-4.069-0.128-7.487,0.063-10.076,0.305c-4.709,0.44-6.517,1.033-9.872,0.916
			c-3.857-0.134-7.106-1.113-9.567-2.137c-2.442-1.296-4.36-2.483-5.7-3.358c-2.64-1.725-3.566-2.583-5.7-3.257
			c-1.357-0.429-1.792-0.337-2.952-0.916c-0.674-0.337-2.357-1.206-3.562-3.156C-173.171,18.307-173.347,16.704-173.375,15.881"/>
		<path fill="#896918" d="M-152.308,38.476c1.184-0.845,3.079-1.979,5.598-2.544c1.781-0.399,2.425-0.19,7.226-0.203
			c5.529-0.016,7.393-0.301,8.041-0.407c2.511-0.414,4.197-1.013,4.886-1.222c3.054-0.926,8.268-0.773,17.709,4.173
			c2.256,1.153,4.53,2.34,6.82,3.562c4.851,2.59,9.532,5.208,14.044,7.837h3.054l-0.407,1.221c-3.448,0.357-5.899-0.252-7.43-0.813
			c-3.955-1.452-4.52-3.602-9.771-6.311c-2.168-1.119-4.04-2.084-6.717-2.443c-3.388-0.454-5.023,0.472-9.669,1.12
			c-2.126,0.297-5.214,0.58-9.058,0.407c-0.985-0.026-2.205-0.151-3.563-0.509c-2.166-0.57-3.809-1.502-4.885-2.239
			c-1.106-0.405-2.59-0.894-4.376-1.323c-1.2-0.29-2.736-0.659-4.581-0.814C-146.995,37.831-149.387,37.812-152.308,38.476"/>
		<path fill="#896918" d="M-64.5,8.858c-1.183,2.093-2.507,3.282-3.461,3.97c-2.177,1.571-3.691,1.449-7.125,3.155
			c-0.213,0.106-2.287,1.146-4.172,2.544c-3.116,2.311-4.37,4.6-7.022,8.448c-1.471,2.132-3.663,5.169-6.617,8.753
			c2.82-1.713,5.232-2.686,6.921-3.257c1.793-0.608,2.652-0.724,4.376-1.526c2.699-1.257,4.447-2.767,4.885-3.155
			c2.359-2.089,3.762-4.399,4.58-6.107c0.628-0.435,1.538-1.11,2.545-2.036c1.738-1.599,3.768-3.467,4.681-6.412
			C-64.628,12.333-64.3,10.837-64.5,8.858"/>
		<path fill="#896918" d="M-27.35,15.881c-1.152,1.068-2.938,2.47-5.395,3.46c-3.125,1.259-3.922,0.475-8.854,1.425
			c-4.786,0.921-8.915,2.598-10.791,3.359c-2.017,0.819-2.091,0.968-3.46,1.425c-3.914,1.308-6.86,1.278-8.651,1.425
			c-2.728,0.225-6.646,1.181-11.501,4.581c4.069-0.128,7.487,0.063,10.076,0.305c4.71,0.44,6.517,1.033,9.874,0.916
			c3.856-0.134,7.105-1.113,9.566-2.137c2.442-1.296,4.36-2.483,5.7-3.358c2.641-1.725,3.566-2.583,5.699-3.257
			c1.357-0.429,1.793-0.337,2.951-0.916c0.676-0.337,2.357-1.206,3.563-3.156C-27.555,18.307-27.379,16.704-27.35,15.881"/>
		<path fill="#896918" d="M-48.419,38.476c-1.185-0.845-3.079-1.979-5.598-2.544c-1.78-0.399-2.425-0.19-7.228-0.203
			c-5.528-0.016-7.392-0.301-8.04-0.407c-2.512-0.414-4.198-1.013-4.885-1.222c-3.055-0.926-8.268-0.773-17.709,4.173
			c-2.255,1.153-4.529,2.34-6.819,3.562c-4.852,2.59-9.533,5.208-14.046,7.837h-3.053l0.407,1.221c3.449,0.357,5.9-0.252,7.43-0.813
			c3.955-1.452,4.521-3.602,9.771-6.311c2.168-1.119,4.04-2.084,6.717-2.443c3.39-0.454,5.024,0.472,9.67,1.12
			c2.125,0.297,5.214,0.58,9.058,0.407c0.985-0.026,2.206-0.151,3.562-0.509c2.168-0.57,3.81-1.502,4.886-2.239
			c1.106-0.405,2.59-0.894,4.376-1.323c1.201-0.29,2.737-0.659,4.58-0.814C-53.731,37.831-51.339,37.812-48.419,38.476"/>
	</g>
	<text transform="matrix(1 0 0 1 -151.625 1.9253)" font-family="'DFKyoKaSho-W4-WING-RKSJ-H'" font-size="21.7787">Document</text>
</g>
<g>
	<text transform="matrix(1 0 0 1 190.4219 147.5918)"><tspan x="0" y="0" fill="none" stroke="#FFFFFF" stroke-width="5" stroke-linecap="round" stroke-linejoin="round" font-family="'DFKyoKaSho-W4-WING-RKSJ-H'" font-size="21.9266">Root element:</tspan><tspan x="38.071" y="37.516" fill="none" stroke="#FFFFFF" stroke-width="5" stroke-linecap="round" stroke-linejoin="round" font-family="'DFKyoKaSho-W4-WING-RKSJ-H'" font-size="21.9266">&lt;html&gt;</tspan></text>
	<text transform="matrix(1 0 0 1 190.4219 147.5918)"><tspan x="0" y="0" fill="#231815" font-family="'DFKyoKaSho-W4-WING-RKSJ-H'" font-size="21.9266">Root element:</tspan><tspan x="38.071" y="37.516" fill="#231815" font-family="'DFKyoKaSho-W4-WING-RKSJ-H'" font-size="21.9266">&lt;html&gt;</tspan></text>
</g>
<g>
	<text transform="matrix(1 0 0 1 154.0591 249.6318)"><tspan x="0" y="0" fill="none" stroke="#FFFFFF" stroke-width="5" stroke-linecap="round" stroke-linejoin="round" font-family="'DFKyoKaSho-W4-WING-RKSJ-H'" font-size="22">Element:</tspan><tspan x="12.536" y="30.28" fill="none" stroke="#FFFFFF" stroke-width="5" stroke-linecap="round" stroke-linejoin="round" font-family="'DFKyoKaSho-W4-WING-RKSJ-H'" font-size="22">&lt;head&gt;</tspan></text>
	<text transform="matrix(1 0 0 1 154.0591 249.6318)"><tspan x="0" y="0" fill="#231815" font-family="'DFKyoKaSho-W4-WING-RKSJ-H'" font-size="22">Element:</tspan><tspan x="12.536" y="30.28" fill="#231815" font-family="'DFKyoKaSho-W4-WING-RKSJ-H'" font-size="22">&lt;head&gt;</tspan></text>
</g>
<g>
	<text transform="matrix(1 0 0 1 277.4912 249.6323)"><tspan x="0" y="0" fill="none" stroke="#FFFFFF" stroke-width="5" stroke-linecap="round" stroke-linejoin="round" font-family="'DFKyoKaSho-W4-WING-RKSJ-H'" font-size="22">Element:</tspan><tspan x="10.968" y="30.279" fill="none" stroke="#FFFFFF" stroke-width="5" stroke-linecap="round" stroke-linejoin="round" font-family="'DFKyoKaSho-W4-WING-RKSJ-H'" font-size="22">&lt;body&gt;</tspan></text>
	<text transform="matrix(1 0 0 1 277.4912 249.6323)"><tspan x="0" y="0" fill="#231815" font-family="'DFKyoKaSho-W4-WING-RKSJ-H'" font-size="22">Element:</tspan><tspan x="10.968" y="30.279" fill="#231815" font-family="'DFKyoKaSho-W4-WING-RKSJ-H'" font-size="22">&lt;body&gt;</tspan></text>
</g>
<g>
	<text transform="matrix(1 0 0 1 90.438 359.8135)"><tspan x="0" y="0" font-family="'DFKyoKaSho-W4-WING-RKSJ-H'" font-size="22">Element:</tspan><tspan x="16.747" y="30.279" font-family="'DFKyoKaSho-W4-WING-RKSJ-H'" font-size="22">&lt;title&gt;</tspan></text>
	<text transform="matrix(1 0 0 1 90.438 359.8135)"><tspan x="0" y="0" fill="none" stroke="#FFFFFF" stroke-width="5" stroke-linecap="round" stroke-linejoin="round" font-family="'DFKyoKaSho-W4-WING-RKSJ-H'" font-size="22">Element:</tspan><tspan x="16.747" y="30.279" fill="none" stroke="#FFFFFF" stroke-width="5" stroke-linecap="round" stroke-linejoin="round" font-family="'DFKyoKaSho-W4-WING-RKSJ-H'" font-size="22">&lt;title&gt;</tspan></text>
	<text transform="matrix(1 0 0 1 90.438 359.8135)"><tspan x="0" y="0" fill="#231815" font-family="'DFKyoKaSho-W4-WING-RKSJ-H'" font-size="22">Element:</tspan><tspan x="16.747" y="30.279" fill="#231815" font-family="'DFKyoKaSho-W4-WING-RKSJ-H'" font-size="22">&lt;title&gt;</tspan></text>
</g>
<g>
	<text transform="matrix(1 0 0 1 46.7339 468.8506)"><tspan x="0" y="0" font-family="'DFKyoKaSho-W4-WING-RKSJ-H'" font-size="22">Text:</tspan><tspan x="-25.04" y="30.279" font-family="'DFKyoKaSho-W4-WING-RKSJ-H'" font-size="22">“My title”</tspan></text>
	<text transform="matrix(1 0 0 1 46.7339 468.8506)"><tspan x="0" y="0" fill="none" stroke="#FFFFFF" stroke-width="5" stroke-linecap="round" stroke-linejoin="round" font-family="'DFKyoKaSho-W4-WING-RKSJ-H'" font-size="22">Text:</tspan><tspan x="-25.04" y="30.279" fill="none" stroke="#FFFFFF" stroke-width="5" stroke-linecap="round" stroke-linejoin="round" font-family="'DFKyoKaSho-W4-WING-RKSJ-H'" font-size="22">“My title”</tspan></text>
	<text transform="matrix(1 0 0 1 46.7339 468.8506)"><tspan x="0" y="0" fill="#231815" font-family="'DFKyoKaSho-W4-WING-RKSJ-H'" font-size="22">Text:</tspan><tspan x="-25.04" y="30.279" fill="#231815" font-family="'DFKyoKaSho-W4-WING-RKSJ-H'" font-size="22">“My title”</tspan></text>
</g>
<g>
	<text transform="matrix(1 0 0 1 423.5283 468.8506)"><tspan x="0" y="0" font-family="'DFKyoKaSho-W4-WING-RKSJ-H'" font-size="22">Text:</tspan><tspan x="-25.556" y="30.279" font-family="'DFKyoKaSho-W4-WING-RKSJ-H'" font-size="22">“My link”</tspan></text>
	<text transform="matrix(1 0 0 1 423.5283 468.8506)"><tspan x="0" y="0" fill="none" stroke="#FFFFFF" stroke-width="5" stroke-linecap="round" stroke-linejoin="round" font-family="'DFKyoKaSho-W4-WING-RKSJ-H'" font-size="22">Text:</tspan><tspan x="-25.556" y="30.279" fill="none" stroke="#FFFFFF" stroke-width="5" stroke-linecap="round" stroke-linejoin="round" font-family="'DFKyoKaSho-W4-WING-RKSJ-H'" font-size="22">“My link”</tspan></text>
	<text transform="matrix(1 0 0 1 423.5283 468.8506)"><tspan x="0" y="0" fill="#231815" font-family="'DFKyoKaSho-W4-WING-RKSJ-H'" font-size="22">Text:</tspan><tspan x="-25.556" y="30.279" fill="#231815" font-family="'DFKyoKaSho-W4-WING-RKSJ-H'" font-size="22">“My link”</tspan></text>
</g>
<g>
	<text transform="matrix(1 0 0 1 551.7158 468.8506)"><tspan x="0" y="0" font-family="'DFKyoKaSho-W4-WING-RKSJ-H'" font-size="22">Text:</tspan><tspan x="-39.907" y="30.279" font-family="'DFKyoKaSho-W4-WING-RKSJ-H'" font-size="22">“My header”</tspan></text>
	<text transform="matrix(1 0 0 1 551.7158 468.8506)"><tspan x="0" y="0" fill="none" stroke="#FFFFFF" stroke-width="5" stroke-linecap="round" stroke-linejoin="round" font-family="'DFKyoKaSho-W4-WING-RKSJ-H'" font-size="22">Text:</tspan><tspan x="-39.907" y="30.279" fill="none" stroke="#FFFFFF" stroke-width="5" stroke-linecap="round" stroke-linejoin="round" font-family="'DFKyoKaSho-W4-WING-RKSJ-H'" font-size="22">“My header”</tspan></text>
	<text transform="matrix(1 0 0 1 551.7158 468.8506)"><tspan x="0" y="0" fill="#231815" font-family="'DFKyoKaSho-W4-WING-RKSJ-H'" font-size="22">Text:</tspan><tspan x="-39.907" y="30.279" fill="#231815" font-family="'DFKyoKaSho-W4-WING-RKSJ-H'" font-size="22">“My header”</tspan></text>
</g>
<g>
	<text transform="matrix(1 0 0 1 212.4053 359.8135)"><tspan x="0" y="0" font-family="'DFKyoKaSho-W4-WING-RKSJ-H'" font-size="22">Attribute:</tspan><tspan x="18.498" y="30.279" font-family="'DFKyoKaSho-W4-WING-RKSJ-H'" font-size="22">“href”</tspan></text>
	<text transform="matrix(1 0 0 1 212.4053 359.8135)"><tspan x="0" y="0" fill="none" stroke="#FFFFFF" stroke-width="5" stroke-linecap="round" stroke-linejoin="round" font-family="'DFKyoKaSho-W4-WING-RKSJ-H'" font-size="22">Attribute:</tspan><tspan x="18.498" y="30.279" fill="none" stroke="#FFFFFF" stroke-width="5" stroke-linecap="round" stroke-linejoin="round" font-family="'DFKyoKaSho-W4-WING-RKSJ-H'" font-size="22">“href”</tspan></text>
	<text transform="matrix(1 0 0 1 212.4053 359.8135)"><tspan x="0" y="0" fill="#231815" font-family="'DFKyoKaSho-W4-WING-RKSJ-H'" font-size="22">Attribute:</tspan><tspan x="18.498" y="30.279" fill="#231815" font-family="'DFKyoKaSho-W4-WING-RKSJ-H'" font-size="22">“href”</tspan></text>
</g>
<g>
	<text transform="matrix(1 0 0 1 340.8936 359.8135)"><tspan x="0" y="0" font-family="'DFKyoKaSho-W4-WING-RKSJ-H'" font-size="22">E.lement:</tspan><tspan x="33.967" y="30.279" font-family="'DFKyoKaSho-W4-WING-RKSJ-H'" font-size="22">&lt;a&gt;</tspan></text>
	<text transform="matrix(1 0 0 1 340.8936 359.8135)"><tspan x="0" y="0" fill="none" stroke="#FFFFFF" stroke-width="5" stroke-linecap="round" stroke-linejoin="round" font-family="'DFKyoKaSho-W4-WING-RKSJ-H'" font-size="22">E.lement:</tspan><tspan x="33.967" y="30.279" fill="none" stroke="#FFFFFF" stroke-width="5" stroke-linecap="round" stroke-linejoin="round" font-family="'DFKyoKaSho-W4-WING-RKSJ-H'" font-size="22">&lt;a&gt;</tspan></text>
	<text transform="matrix(1 0 0 1 340.8936 359.8135)"><tspan x="0" y="0" fill="#231815" font-family="'DFKyoKaSho-W4-WING-RKSJ-H'" font-size="22">E.lement:</tspan><tspan x="33.967" y="30.279" fill="#231815" font-family="'DFKyoKaSho-W4-WING-RKSJ-H'" font-size="22">&lt;a&gt;</tspan></text>
</g>
<g>
	<text transform="matrix(1 0 0 1 469.3174 359.8135)"><tspan x="0" y="0" font-family="'DFKyoKaSho-W4-WING-RKSJ-H'" font-size="22">Element:</tspan><tspan x="24.009" y="30.279" font-family="'DFKyoKaSho-W4-WING-RKSJ-H'" font-size="22">&lt;h1&gt;</tspan></text>
	<text transform="matrix(1 0 0 1 469.3174 359.8135)"><tspan x="0" y="0" fill="none" stroke="#FFFFFF" stroke-width="5" stroke-linecap="round" stroke-linejoin="round" font-family="'DFKyoKaSho-W4-WING-RKSJ-H'" font-size="22">Element:</tspan><tspan x="24.009" y="30.279" fill="none" stroke="#FFFFFF" stroke-width="5" stroke-linecap="round" stroke-linejoin="round" font-family="'DFKyoKaSho-W4-WING-RKSJ-H'" font-size="22">&lt;h1&gt;</tspan></text>
	<text transform="matrix(1 0 0 1 469.3174 359.8135)"><tspan x="0" y="0" fill="#231815" font-family="'DFKyoKaSho-W4-WING-RKSJ-H'" font-size="22">Element:</tspan><tspan x="24.009" y="30.279" fill="#231815" font-family="'DFKyoKaSho-W4-WING-RKSJ-H'" font-size="22">&lt;h1&gt;</tspan></text>
</g>
<g>
	
		<text transform="matrix(1 0 0 1 310.375 412.3408)" fill="none" stroke="#FFFFFF" stroke-width="5" stroke-linecap="round" stroke-linejoin="round" font-family="'DFKyoKaSho-W4-WING-RKSJ-H'" font-size="43.9274">＋</text>
	
		<text transform="matrix(1 0 0 1 310.375 412.3408)" fill="#231815" font-family="'DFKyoKaSho-W4-WING-RKSJ-H'" font-size="43.9274">＋</text>
</g>
</svg>
