<?xml version="1.0" encoding="utf-8"?>
<!-- Generator: Adobe Illustrator 15.1.0, SVG Export Plug-In . SVG Version: 6.00 Build 0)  -->
<!DOCTYPE svg PUBLIC "-//W3C//DTD SVG 1.1//EN" "http://www.w3.org/Graphics/SVG/1.1/DTD/svg11.dtd">
<svg version="1.1" id="レイヤー_1" xmlns="http://www.w3.org/2000/svg" xmlns:xlink="http://www.w3.org/1999/xlink" x="0px"
	 y="0px" width="653.967px" height="624.52px" viewBox="0 0 653.967 624.52" enable-background="new 0 0 653.967 624.52"
	 xml:space="preserve">
<polygon opacity="0.42" fill="#F97855" points="236.544,868.23 173.493,977.437 110.441,868.23 "/>
<polygon opacity="0.42" fill="#F97855" points="299.596,759.023 236.544,868.23 173.493,759.023 "/>
<polygon opacity="0.42" fill="#601986" points="362.646,652.827 299.596,762.034 236.544,652.827 "/>
<polygon opacity="0.54" fill="#00913A" points="426.269,759.023 363.218,868.23 300.166,759.023 "/>
<polygon opacity="0.54" fill="#00913A" stroke="#FFFFFF" stroke-width="7" points="300.167,977.438 363.218,868.231 426.27,977.438 
	"/>
<polygon opacity="0.54" fill="#FFF100" points="363.217,868.23 300.166,977.437 237.114,868.23 "/>
<polygon opacity="0.42" fill="#F97855" points="173.493,977.437 110.442,1086.644 47.391,977.437 "/>
<polygon opacity="0.54" fill="#036EB8" points="552.373,977.438 489.322,1086.645 426.27,977.438 "/>
<polygon opacity="0.54" fill="#036EB8" points="678.477,977.438 615.426,1086.645 552.373,977.438 "/>
<polygon opacity="0.54" fill="#036EB8" points="489.321,868.23 426.27,977.437 363.218,868.23 "/>
<polygon opacity="0.54" fill="#036EB8" points="615.425,868.23 552.373,977.437 489.321,868.23 "/>
<g>
	<g>
		<path fill="#896918" d="M320.07,56.37c-1.024,1.039-6.015,6.32-6.064,14.655c-0.051,8.498,5.07,13.899,6.064,14.909
			c0.994-1.009,6.114-6.411,6.063-14.909C326.085,62.69,321.095,57.409,320.07,56.37 M317.039,75.159
			c0.025-4.167,2.519-6.808,3.032-7.328c0.511,0.52,3.007,3.16,3.031,7.328c0.026,4.249-2.534,6.95-3.031,7.454
			C319.573,82.109,317.012,79.408,317.039,75.159"/>
		<path fill="#896918" d="M330.317,80.375c4.438-3.232,9.256-3.342,11.117-3.285c-2.006-0.328-8.322-1.088-13.897,2.78
			c-5.192,3.603-6.919,9.262-7.467,13.515c-0.548-4.253-2.275-9.913-7.467-13.515c-5.575-3.868-11.893-3.108-13.898-2.78
			c1.862-0.057,6.68,0.053,11.118,3.285c4.832,3.52,6.189,8.538,7.049,11.719c0.663,2.453,2.632,9.734-1.237,17.087
			c-2.111,4.011-5.093,6.397-6.823,7.581c1.727-0.824,5.533-2.929,8.338-7.328c1.913-2.998,2.629-5.916,2.919-8.132
			c0.288,2.216,1.007,5.134,2.919,8.132c2.807,4.399,6.611,6.504,8.339,7.328c-1.731-1.184-4.713-3.57-6.823-7.581
			c-3.869-7.353-1.9-14.634-1.238-17.087C324.128,88.913,325.483,83.894,330.317,80.375"/>
		<path fill="#896918" d="M278.245,123.879c0.145,0.302,10.398-4.722,18.292-6.652c0.354-0.086,1.563-0.377,3.174-0.864
			c2.987-0.902,5.616-1.696,7.704-3.01c3.884-2.445,5.478-6.427,5.838-7.329c2.74-6.846,0.702-17.19-6.914-21.355
			c-4.907-2.683-11.952-2.656-16.454,1.138c-2.704,2.279-3.659,5.216-3.938,6.213c-0.272,0.974-1.73,6.189,1.576,10.328
			c2.32,2.906,7.017,5.318,11.115,3.414c4.612-2.144,6.397-8.797,3.953-12.206c-1.213-1.69-3.945-3.251-6.403-2.235
			c-2.265,0.937-3.662,3.798-2.976,6.827c-0.3-3.114,1.674-5.685,4.026-6.039c2.309-0.347,4.297,1.544,5.076,3.238
			c1.307,2.842-0.219,6.372-2.451,7.876c-3.577,2.413-9.765,0.162-11.902-4.201c-2.036-4.154,0.254-8.892,2.9-11.351
			c3.331-3.094,7.545-2.875,8.477-2.827c6.949,0.362,10.497,6.584,10.678,6.915c1.564,2.854,1.57,5.5,1.575,7.701
			c0.005,2.067,0.017,7.524-3.619,11.167c-0.58,0.581-1.418,1.282-5.859,3.111c-6.425,2.646-9.49,3.163-13.714,4.802
			C282.39,120.871,278.149,123.678,278.245,123.879"/>
		<path fill="#896918" d="M361.896,123.879c-0.145,0.302-10.398-4.722-18.293-6.652c-0.353-0.086-1.563-0.377-3.173-0.864
			c-2.987-0.902-5.616-1.696-7.704-3.01c-3.883-2.445-5.479-6.427-5.839-7.329c-2.739-6.846-0.7-17.19,6.915-21.355
			c4.906-2.683,11.95-2.656,16.453,1.138c2.704,2.279,3.66,5.216,3.938,6.213c0.273,0.974,1.732,6.189-1.574,10.328
			c-2.32,2.906-7.018,5.318-11.115,3.414c-4.611-2.144-6.398-8.797-3.953-12.206c1.214-1.69,3.946-3.251,6.404-2.235
			c2.266,0.937,3.66,3.798,2.975,6.827c0.3-3.114-1.674-5.685-4.025-6.039c-2.309-0.347-4.297,1.544-5.076,3.238
			c-1.307,2.842,0.219,6.372,2.451,7.876c3.577,2.413,9.765,0.162,11.902-4.201c2.037-4.154-0.254-8.892-2.9-11.351
			c-3.33-3.094-7.545-2.875-8.478-2.827c-6.948,0.362-10.496,6.584-10.678,6.915c-1.563,2.854-1.57,5.5-1.574,7.701
			c-0.007,2.067-0.019,7.524,3.62,11.167c0.578,0.581,1.417,1.282,5.858,3.111c6.424,2.646,9.489,3.163,13.714,4.802
			C357.749,120.871,361.991,123.678,361.896,123.879"/>
		<path fill="#896918" d="M289.327,114.165c-1.733-0.867-2.65-2.178-3.008-2.758c0.688-0.566,1.126-1.423,1.126-2.383
			c0-1.704-1.381-3.085-3.085-3.085c-1.704,0-3.085,1.381-3.085,3.085c0,1.703,1.381,3.085,3.085,3.085
			c0.069,0.722,0.096,2.057-0.496,3.557c-0.844,2.138-2.417,3.27-3.027,3.664c0.643-0.217,3.295-1.191,4.464-3.851
			c0.354-0.807,0.486-1.573,0.525-2.188c0.496,0.47,1.739,1.521,3.676,1.926c2.03,0.423,3.655-0.105,4.289-0.351
			C293.131,114.964,291.301,115.152,289.327,114.165 M285.339,106.813c0.541,0,0.979,0.438,0.979,0.979s-0.438,0.979-0.979,0.979
			c-0.541,0-0.979-0.438-0.979-0.979S284.798,106.813,285.339,106.813"/>
		<path fill="#896918" d="M346.739,114.864c0.635,0.245,2.26,0.774,4.289,0.351c1.938-0.404,3.179-1.456,3.676-1.926
			c0.039,0.616,0.17,1.381,0.525,2.188c1.168,2.66,3.82,3.634,4.463,3.851c-0.609-0.394-2.184-1.526-3.025-3.664
			c-0.594-1.5-0.565-2.834-0.498-3.556c1.705,0,3.086-1.381,3.086-3.085c0-1.704-1.381-3.085-3.086-3.085
			c-1.703,0-3.084,1.381-3.084,3.085c0,0.96,0.439,1.818,1.127,2.384c-0.359,0.581-1.275,1.891-3.009,2.758
			C349.229,115.152,347.397,114.964,346.739,114.864 M356.169,107.792c0,0.541-0.437,0.979-0.979,0.979
			c-0.541,0-0.979-0.438-0.979-0.979s0.438-0.979,0.979-0.979C355.732,106.813,356.169,107.251,356.169,107.792"/>
		<path fill="#896918" d="M268.849,106.2c-0.146,0.135-1.721,1.639-1.4,3.763c0.289,1.913,1.925,3.085,3.357,3.452
			c2.581,0.662,4.573-1.387,4.87-1.702c2.116-2.245,1.421-5.329,1.313-5.776c-0.13-0.537-0.833-3.13-3.326-4.288
			c-2.238-1.04-4.4-0.216-5.426,0.175c0,0-3.092,1.166-4.989,4.288c-2.864,4.715-0.836,13.672,4.901,22.93
			c-3.573-7.03-4.197-12.644-4.288-15.666c-0.094-3.141,0.331-5.368,1.751-7.177c0.23-0.294,1.887-2.237,4.638-2.713
			c0.843-0.146,2.078-0.36,3.3,0.318c1.686,0.936,2.051,2.854,2.133,3.285c0.109,0.57,0.483,2.534-0.882,4.012
			c-1.065,1.154-2.909,1.704-4.364,1.043C268.585,111.304,267.621,108.613,268.849,106.2"/>
		<path fill="#896918" d="M371.29,106.2c0.146,0.135,1.722,1.639,1.401,3.763c-0.288,1.913-1.925,3.085-3.356,3.452
			c-2.582,0.662-4.574-1.387-4.87-1.702c-2.116-2.245-1.421-5.329-1.313-5.776c0.131-0.537,0.832-3.13,3.326-4.288
			c2.239-1.04,4.4-0.216,5.427,0.175c0,0,3.092,1.166,4.988,4.288c2.865,4.715,0.838,13.672-4.901,22.93
			c3.573-7.03,4.198-12.644,4.29-15.666c0.094-3.141-0.332-5.368-1.753-7.177c-0.23-0.294-1.886-2.237-4.637-2.713
			c-0.844-0.146-2.078-0.36-3.3,0.318c-1.687,0.936-2.052,2.854-2.134,3.285c-0.107,0.57-0.482,2.534,0.882,4.012
			c1.066,1.154,2.909,1.704,4.364,1.043C371.556,111.304,372.521,108.613,371.29,106.2"/>
		<path fill="#896918" d="M273.807,120.305c-0.137-0.382-0.553-1.331-1.862-2.114c-1.345,0.311-2.004,0.982-2.276,1.313
			c-1.368,1.665-1.124,4.682,0.875,7.265C273.292,125.087,274.53,122.336,273.807,120.305 M271.037,123.021
			c-0.86-1.112-0.965-2.411-0.376-3.127c0.117-0.143,0.4-0.432,0.979-0.565c0.563,0.337,0.743,0.746,0.802,0.911
			C272.752,121.113,272.22,122.298,271.037,123.021"/>
		<path fill="#896918" d="M370.471,119.503c-0.271-0.331-0.931-1.001-2.276-1.313c-1.307,0.783-1.725,1.732-1.859,2.114
			c-0.725,2.031,0.514,4.783,3.261,6.463C371.595,124.185,371.839,121.168,370.471,119.503 M369.104,123.021
			c-1.184-0.723-1.717-1.908-1.405-2.782c0.06-0.165,0.239-0.573,0.802-0.911c0.578,0.134,0.862,0.423,0.979,0.565
			C370.069,120.61,369.965,121.909,369.104,123.021"/>
		<path fill="#896918" d="M248.772,94.473c7.147,1.755,9.655,4.573,10.623,6.826c0.625,1.456,0.554,2.553,1.05,6.477
			c0.493,3.888,1.093,7.002,1.514,8.986L248.772,94.473z"/>
		<path fill="#896918" d="M391.367,94.473c-7.145,1.755-9.654,4.573-10.623,6.826c-0.623,1.456-0.553,2.553-1.049,6.477
			c-0.492,3.888-1.094,7.002-1.514,8.986L391.367,94.473z"/>
		<path fill="#896918" d="M266.039,99.23c0,1.352-1.096,2.448-2.448,2.448s-2.448-1.096-2.448-2.448
			c0-1.352,1.096-2.448,2.448-2.448S266.039,97.878,266.039,99.23"/>
		<path fill="#896918" d="M260.638,96.287c0,0.736-0.598,1.334-1.334,1.334c-0.737,0-1.335-0.598-1.335-1.334
			c0-0.737,0.598-1.335,1.335-1.335C260.04,94.952,260.638,95.549,260.638,96.287"/>
		<path fill="#896918" d="M374.103,99.23c0,1.352,1.095,2.448,2.448,2.448c1.352,0,2.447-1.096,2.447-2.448
			c0-1.352-1.096-2.448-2.447-2.448C375.197,96.782,374.103,97.878,374.103,99.23"/>
		<path fill="#896918" d="M379.502,96.287c0,0.736,0.598,1.334,1.334,1.334c0.738,0,1.336-0.598,1.336-1.334
			c0-0.737-0.598-1.335-1.336-1.335C380.1,94.952,379.502,95.549,379.502,96.287"/>
		<path fill="#896918" d="M342.817,121.453c-4.381-0.99-8.504-1.569-12.276-1.879c0.378-0.085,0.677-0.178,0.877-0.245
			c-1.31-0.184-3.763-0.716-6.183-2.513c-3.83-2.843-4.896-6.859-5.165-8.044c-0.269,1.185-1.336,5.201-5.165,8.044
			c-2.421,1.797-4.874,2.33-6.183,2.513c0.2,0.067,0.499,0.16,0.876,0.245c-3.773,0.31-7.896,0.89-12.277,1.879
			c-11.885,2.684-21.019,7.321-27.032,11.014c7.185-3.691,17.911-8.053,31.477-9.662c6.899-0.818,13.093-0.754,18.304-0.327
			c5.21-0.427,11.405-0.492,18.304,0.327c13.565,1.608,24.29,5.971,31.477,9.662C363.837,128.774,354.704,124.136,342.817,121.453
			 M320.07,119.328c-1.701-0.06-3.556-0.075-5.536-0.022c4.081-1.466,5.388-5.486,5.536-5.97c0.147,0.483,1.453,4.503,5.536,5.97
			C323.626,119.253,321.771,119.269,320.07,119.328"/>
		<path fill="#896918" d="M288.914,133.559c0,1.974-1.6,3.575-3.575,3.575c-1.974,0-3.574-1.601-3.574-3.575
			c0-1.975,1.6-3.575,3.574-3.575C287.313,129.984,288.914,131.584,288.914,133.559"/>
		<path fill="#FFFFFF" d="M287.375,131.764c0,0.595-0.482,1.077-1.077,1.077c-0.596,0-1.078-0.482-1.078-1.077
			c0-0.596,0.482-1.078,1.078-1.078C286.892,130.687,287.375,131.168,287.375,131.764"/>
		<path fill="#896918" d="M275.458,133.559c-1.975,0-3.575,1.601-3.575,3.575c0,1.974,1.601,3.574,3.575,3.574
			c1.974,0,3.575-1.6,3.575-3.574C279.033,135.16,277.432,133.559,275.458,133.559 M276.416,136.417
			c-0.595,0-1.078-0.482-1.078-1.078c0-0.595,0.483-1.078,1.078-1.078c0.595,0,1.078,0.483,1.078,1.078
			C277.494,135.934,277.011,136.417,276.416,136.417"/>
		<path fill="#896918" d="M284.865,129.984c-1.975,0-3.575,1.6-3.575,3.575c0,1.974,1.6,3.575,3.575,3.575
			c1.974,0,3.575-1.601,3.575-3.575C288.44,131.584,286.839,129.984,284.865,129.984 M285.823,132.841
			c-0.596,0-1.078-0.482-1.078-1.077c0-0.596,0.482-1.078,1.078-1.078c0.595,0,1.078,0.482,1.078,1.078
			C286.901,132.359,286.418,132.841,285.823,132.841"/>
		<path fill="#896918" d="M295.854,127.469c-1.974,0-3.574,1.601-3.574,3.575c0,1.974,1.6,3.575,3.574,3.575
			c1.975,0,3.575-1.601,3.575-3.575C299.429,129.07,297.829,127.469,295.854,127.469 M296.813,130.327
			c-0.595,0-1.078-0.482-1.078-1.078c0-0.595,0.482-1.077,1.078-1.077c0.595,0,1.078,0.482,1.078,1.077
			C297.89,129.844,297.407,130.327,296.813,130.327"/>
		<path fill="#896918" d="M307.779,125.81c-1.974,0-3.575,1.6-3.575,3.574c0,1.975,1.601,3.575,3.575,3.575
			c1.975,0,3.574-1.6,3.574-3.575C311.353,127.41,309.753,125.81,307.779,125.81 M308.737,128.667c-0.595,0-1.077-0.483-1.077-1.078
			c0-0.595,0.482-1.078,1.077-1.078c0.596,0,1.078,0.483,1.078,1.078C309.814,128.184,309.333,128.667,308.737,128.667"/>
		<path fill="#896918" d="M364.683,133.559c-1.974,0-3.574,1.601-3.574,3.575c0,1.974,1.601,3.574,3.574,3.574
			c1.975,0,3.575-1.6,3.575-3.574C368.258,135.16,366.657,133.559,364.683,133.559 M365.64,136.417
			c-0.594,0-1.077-0.482-1.077-1.078c0-0.595,0.483-1.078,1.077-1.078c0.596,0,1.078,0.483,1.078,1.078
			C366.718,135.934,366.235,136.417,365.64,136.417"/>
		<path fill="#896918" d="M353.738,129.984c-1.974,0-3.575,1.6-3.575,3.575c0,1.974,1.602,3.575,3.575,3.575
			s3.575-1.601,3.575-3.575C357.313,131.584,355.712,129.984,353.738,129.984 M354.696,132.841c-0.596,0-1.078-0.482-1.078-1.077
			c0-0.596,0.482-1.078,1.078-1.078c0.594,0,1.077,0.482,1.077,1.078C355.773,132.359,355.29,132.841,354.696,132.841"/>
		<path fill="#896918" d="M343.848,127.469c-1.974,0-3.575,1.601-3.575,3.575c0,1.974,1.602,3.575,3.575,3.575
			s3.575-1.601,3.575-3.575C347.423,129.07,345.821,127.469,343.848,127.469 M344.806,130.327c-0.596,0-1.078-0.482-1.078-1.078
			c0-0.595,0.482-1.077,1.078-1.077s1.077,0.482,1.077,1.077C345.883,129.844,345.401,130.327,344.806,130.327"/>
		<path fill="#896918" d="M331.722,125.81c-1.975,0-3.574,1.6-3.574,3.574c0,1.975,1.6,3.575,3.574,3.575s3.575-1.6,3.575-3.575
			C335.297,127.41,333.696,125.81,331.722,125.81 M332.681,128.667c-0.596,0-1.079-0.483-1.079-1.078
			c0-0.595,0.483-1.078,1.079-1.078s1.076,0.483,1.076,1.078C333.757,128.184,333.276,128.667,332.681,128.667"/>
		<path fill="#896918" d="M319.597,124.716c-1.975,0-3.576,1.6-3.576,3.575c0,1.974,1.601,3.575,3.576,3.575
			c1.974,0,3.574-1.601,3.574-3.575C323.171,126.316,321.57,124.716,319.597,124.716 M320.555,127.573
			c-0.596,0-1.078-0.482-1.078-1.078c0-0.596,0.482-1.078,1.078-1.078c0.595,0,1.077,0.482,1.077,1.078
			C321.632,127.091,321.149,127.573,320.555,127.573"/>
		<path fill="#896918" d="M352.425,139.29c-6.907-1.96-13.056-2.259-22.435-2.661c-4.104-0.176-7.524-0.213-9.92-0.212
			c-2.395-0.001-5.815,0.036-9.92,0.212c-9.379,0.402-15.528,0.701-22.434,2.661c-3.856,1.095-13.765,3.905-13.689,7.098
			c0.081,3.437,11.268,6.118,23.863,8.112c-9.025-1.882-19.774-4.686-19.68-7.732c0.056-1.803,3.893-3.057,8.112-4.436
			c5.565-1.819,10.581-2.462,23.195-3.169c2.883-0.162,6.45-0.342,10.554-0.507c4.104,0.165,7.671,0.346,10.552,0.507
			c12.615,0.707,17.631,1.35,23.195,3.169c4.22,1.378,8.058,2.632,8.113,4.436c0.094,3.047-10.656,5.85-19.68,7.732
			c12.594-1.994,23.779-4.676,23.861-8.112C366.188,143.195,356.278,140.385,352.425,139.29"/>
		<path fill="#896918" d="M311.681,73.346c0,1.211-0.982,2.194-2.194,2.194s-2.194-0.982-2.194-2.194
			c0-1.212,0.982-2.194,2.194-2.194S311.681,72.134,311.681,73.346"/>
		<path fill="#896918" d="M311.681,68.346c0,0.525-0.425,0.951-0.951,0.951c-0.525,0-0.951-0.426-0.951-0.951
			s0.426-0.951,0.951-0.951C311.255,67.395,311.681,67.821,311.681,68.346"/>
		<path fill="#896918" d="M328.459,73.346c0,1.211,0.983,2.194,2.194,2.194s2.194-0.982,2.194-2.194
			c0-1.212-0.983-2.194-2.194-2.194S328.459,72.134,328.459,73.346"/>
		<path fill="#896918" d="M328.459,68.346c0,0.525,0.427,0.951,0.952,0.951c0.524,0,0.95-0.426,0.95-0.951s-0.426-0.951-0.95-0.951
			C328.886,67.395,328.459,67.821,328.459,68.346"/>
	</g>
	<g>
		<path fill="#896918" d="M284.208,183.441c1.183,2.093,2.508,3.282,3.461,3.97c2.177,1.571,3.692,1.449,7.124,3.155
			c0.214,0.106,2.288,1.146,4.173,2.544c3.115,2.311,4.37,4.6,7.022,8.448c1.47,2.132,3.663,5.169,6.616,8.753
			c-2.821-1.713-5.232-2.686-6.921-3.257c-1.795-0.608-2.653-0.724-4.377-1.526c-2.699-1.257-4.446-2.767-4.885-3.155
			c-2.36-2.089-3.763-4.399-4.58-6.107c-0.629-0.435-1.538-1.11-2.545-2.036c-1.737-1.599-3.768-3.467-4.682-6.412
			C284.335,186.917,284.007,185.42,284.208,183.441"/>
		<path fill="#896918" d="M247.059,190.464c1.152,1.068,2.937,2.47,5.394,3.46c3.125,1.259,3.92,0.475,8.854,1.425
			c4.784,0.921,8.914,2.598,10.789,3.359c2.017,0.819,2.092,0.968,3.46,1.425c3.914,1.308,6.86,1.278,8.651,1.425
			c2.728,0.225,6.646,1.181,11.501,4.581c-4.069-0.128-7.487,0.063-10.076,0.305c-4.709,0.44-6.517,1.033-9.872,0.916
			c-3.857-0.134-7.106-1.113-9.567-2.137c-2.442-1.296-4.36-2.483-5.7-3.358c-2.64-1.725-3.566-2.583-5.7-3.257
			c-1.357-0.429-1.792-0.337-2.952-0.916c-0.674-0.337-2.357-1.206-3.562-3.156C247.263,192.89,247.087,191.287,247.059,190.464"/>
		<path fill="#896918" d="M268.126,213.059c1.184-0.845,3.079-1.979,5.598-2.544c1.781-0.399,2.425-0.19,7.226-0.203
			c5.529-0.016,7.393-0.301,8.041-0.407c2.511-0.414,4.197-1.013,4.886-1.222c3.054-0.926,8.268-0.773,17.709,4.173
			c2.256,1.153,4.53,2.34,6.82,3.562c4.851,2.59,9.532,5.208,14.044,7.837h3.055l-0.407,1.221c-3.448,0.357-5.899-0.252-7.431-0.813
			c-3.955-1.452-4.52-3.602-9.771-6.311c-2.168-1.119-4.04-2.084-6.717-2.443c-3.388-0.454-5.023,0.472-9.669,1.12
			c-2.126,0.297-5.214,0.58-9.058,0.407c-0.985-0.026-2.205-0.151-3.563-0.509c-2.166-0.57-3.809-1.502-4.885-2.239
			c-1.106-0.405-2.59-0.894-4.376-1.323c-1.2-0.29-2.736-0.659-4.581-0.814C273.439,212.414,271.047,212.395,268.126,213.059"/>
		<path fill="#896918" d="M355.934,183.441c-1.183,2.093-2.507,3.282-3.461,3.97c-2.177,1.571-3.69,1.449-7.124,3.155
			c-0.213,0.106-2.287,1.146-4.173,2.544c-3.116,2.311-4.37,4.6-7.022,8.448c-1.471,2.132-3.662,5.169-6.616,8.753
			c2.82-1.713,5.231-2.686,6.921-3.257c1.794-0.608,2.652-0.724,4.377-1.526c2.699-1.257,4.447-2.767,4.885-3.155
			c2.359-2.089,3.763-4.399,4.58-6.107c0.629-0.435,1.538-1.11,2.545-2.036c1.738-1.599,3.768-3.467,4.682-6.412
			C355.806,186.917,356.134,185.42,355.934,183.441"/>
		<path fill="#896918" d="M393.084,190.464c-1.152,1.068-2.938,2.47-5.395,3.46c-3.125,1.259-3.922,0.475-8.854,1.425
			c-4.786,0.921-8.915,2.598-10.791,3.359c-2.017,0.819-2.091,0.968-3.46,1.425c-3.914,1.308-6.859,1.278-8.651,1.425
			c-2.728,0.225-6.646,1.181-11.501,4.581c4.069-0.128,7.487,0.063,10.076,0.305c4.71,0.44,6.517,1.033,9.873,0.916
			c3.857-0.134,7.105-1.113,9.566-2.137c2.442-1.296,4.36-2.483,5.7-3.358c2.641-1.725,3.566-2.583,5.699-3.257
			c1.357-0.429,1.793-0.337,2.951-0.916c0.676-0.337,2.357-1.206,3.563-3.156C392.879,192.89,393.055,191.287,393.084,190.464"/>
		<path fill="#896918" d="M372.015,213.059c-1.184-0.845-3.078-1.979-5.598-2.544c-1.779-0.399-2.424-0.19-7.227-0.203
			c-5.529-0.016-7.393-0.301-8.04-0.407c-2.512-0.414-4.198-1.013-4.886-1.222c-3.055-0.926-8.268-0.773-17.709,4.173
			c-2.256,1.153-4.529,2.34-6.819,3.562c-4.852,2.59-9.533,5.208-14.046,7.837h-3.053l0.407,1.221c3.449,0.357,5.9-0.252,7.43-0.813
			c3.955-1.452,4.521-3.602,9.771-6.311c2.168-1.119,4.04-2.084,6.718-2.443c3.389-0.454,5.023,0.472,9.67,1.12
			c2.125,0.297,5.215,0.58,9.058,0.407c0.985-0.026,2.206-0.151,3.562-0.509c2.168-0.57,3.81-1.502,4.887-2.239
			c1.105-0.405,2.59-0.894,4.376-1.323c1.201-0.29,2.737-0.659,4.58-0.814C366.703,212.414,369.095,212.395,372.015,213.059"/>
	</g>
</g>
<text transform="matrix(1 0 0 1 162.3022 176.5083)" font-family="'DFKyoKaSho-W4-WING-RKSJ-H'" font-size="21" letter-spacing="2">getElementsByClassName</text>
<text transform="matrix(1 0 0 1 75.1011 286.332)"><tspan x="0" y="0" font-family="'DFKyoKaSho-W4-WING-RKSJ-H'" font-size="14" letter-spacing="1">&lt;p class=&quot;num01&quot;&gt;JavaScript&lt;/p&gt;</tspan><tspan x="0" y="19.424" font-family="'DFKyoKaSho-W4-WING-RKSJ-H'" font-size="14" letter-spacing="1">&lt;p class=&quot;num02&quot;&gt;PHP&lt;/p&gt;</tspan><tspan x="0" y="38.849" font-family="'DFKyoKaSho-W4-WING-RKSJ-H'" font-size="14" letter-spacing="1">&lt;p class=&quot;num01&quot;&gt;Java&lt;/p&gt;</tspan><tspan x="0" y="77.697" font-family="'DFKyoKaSho-W4-WING-RKSJ-H'" font-size="14" letter-spacing="1">&lt;script&gt;</tspan><tspan x="0" y="97.122" font-family="'DFKyoKaSho-W4-WING-RKSJ-H'" font-size="14" letter-spacing="31">	</tspan><tspan x="36" y="97.122" font-family="'DFKyoKaSho-W4-WING-RKSJ-H'" font-size="14" letter-spacing="1">var e = document.getElementsByClassName(&quot;num01&quot;);</tspan><tspan x="0" y="116.547" font-family="'DFKyoKaSho-W4-WING-RKSJ-H'" font-size="14" letter-spacing="31">	</tspan><tspan x="36" y="116.547" font-family="'DFKyoKaSho-W4-WING-RKSJ-H'" font-size="14" letter-spacing="1">e[0].style.color = &quot;red&quot;;</tspan><tspan x="0" y="135.971" font-family="'DFKyoKaSho-W4-WING-RKSJ-H'" font-size="14" letter-spacing="31">	</tspan><tspan x="36" y="135.971" font-family="'DFKyoKaSho-W4-WING-RKSJ-H'" font-size="14" letter-spacing="1">e[1].style.color = &quot;blue&quot;;</tspan><tspan x="0" y="174.82" font-family="'DFKyoKaSho-W4-WING-RKSJ-H'" font-size="14" letter-spacing="31">	</tspan><tspan x="36" y="174.82" font-family="'DFKyoKaSho-W4-WING-RKSJ-H'" font-size="14" letter-spacing="1">for(i in e)</tspan><tspan x="0" y="194.244" font-family="'DFKyoKaSho-W4-WING-RKSJ-H'" font-size="14" letter-spacing="31">	</tspan><tspan x="36" y="194.244" font-family="'DFKyoKaSho-W4-WING-RKSJ-H'" font-size="14" letter-spacing="1">{</tspan><tspan x="0" y="213.669" font-family="'DFKyoKaSho-W4-WING-RKSJ-H'" font-size="14" letter-spacing="31">		</tspan><tspan x="72" y="213.669" font-family="'DFKyoKaSho-W4-WING-RKSJ-H'" font-size="14" letter-spacing="1">e[i].style.fontWeight = &quot;bold&quot;;</tspan><tspan x="0" y="233.093" font-family="'DFKyoKaSho-W4-WING-RKSJ-H'" font-size="14" letter-spacing="31">		</tspan><tspan x="72" y="233.093" font-family="'DFKyoKaSho-W4-WING-RKSJ-H'" font-size="14" letter-spacing="1">e[i].style.fontSize = &quot;22px&quot;;</tspan><tspan x="0" y="252.518" font-family="'DFKyoKaSho-W4-WING-RKSJ-H'" font-size="14" letter-spacing="31">	</tspan><tspan x="36" y="252.518" font-family="'DFKyoKaSho-W4-WING-RKSJ-H'" font-size="14" letter-spacing="1">}</tspan><tspan x="0" y="271.942" font-family="'DFKyoKaSho-W4-WING-RKSJ-H'" font-size="14" letter-spacing="1">&lt;/script&gt;</tspan></text>
</svg>
